<svg width="80" height="80" viewBox="0 0 80 80" fill="none" xmlns="http://www.w3.org/2000/svg">
<rect width="80" height="80" rx="40" fill="#F3F0EA"/>
<circle opacity="0.2" cx="40" cy="40" r="32" fill="#71A894"/>
<circle opacity="0.4" cx="40" cy="40" r="24" fill="#71A894"/>
<circle opacity="0.6" cx="40" cy="40" r="17" fill="#71A894"/>
<circle cx="40" cy="40" r="9" fill="#71A894"/>
<path d="M49.6875 51.7266V57H26.3438V52.5L37.3828 40.6641C38.4922 39.4297 39.3672 38.3438 40.0078 37.4062C40.6484 36.4531 41.1094 35.6016 41.3906 34.8516C41.6875 34.0859 41.8359 33.3594 41.8359 32.6719C41.8359 31.6406 41.6641 30.7578 41.3203 30.0234C40.9766 29.2734 40.4688 28.6953 39.7969 28.2891C39.1406 27.8828 38.3281 27.6797 37.3594 27.6797C36.3281 27.6797 35.4375 27.9297 34.6875 28.4297C33.9531 28.9297 33.3906 29.625 33 30.5156C32.625 31.4062 32.4375 32.4141 32.4375 33.5391H25.6641C25.6641 31.5078 26.1484 29.6484 27.1172 27.9609C28.0859 26.2578 29.4531 24.9062 31.2188 23.9062C32.9844 22.8906 35.0781 22.3828 37.5 22.3828C39.8906 22.3828 41.9062 22.7734 43.5469 23.5547C45.2031 24.3203 46.4531 25.4297 47.2969 26.8828C48.1562 28.3203 48.5859 30.0391 48.5859 32.0391C48.5859 33.1641 48.4062 34.2656 48.0469 35.3438C47.6875 36.4062 47.1719 37.4688 46.5 38.5312C45.8438 39.5781 45.0469 40.6406 44.1094 41.7188C43.1719 42.7969 42.1328 43.9141 40.9922 45.0703L35.0625 51.7266H49.6875ZM54.5156 53.7422C54.5156 52.7422 54.8594 51.9062 55.5469 51.2344C56.25 50.5625 57.1797 50.2266 58.3359 50.2266C59.4922 50.2266 60.4141 50.5625 61.1016 51.2344C61.8047 51.9062 62.1562 52.7422 62.1562 53.7422C62.1562 54.7422 61.8047 55.5781 61.1016 56.25C60.4141 56.9219 59.4922 57.2578 58.3359 57.2578C57.1797 57.2578 56.25 56.9219 55.5469 56.25C54.8594 55.5781 54.5156 54.7422 54.5156 53.7422Z" fill="#303031"/>
</svg>
