<svg width="80" height="80" viewBox="0 0 80 80" fill="none" xmlns="http://www.w3.org/2000/svg">
<rect width="80" height="80" rx="40" fill="#F3F0EA"/>
<circle opacity="0.2" cx="40" cy="40" r="32" fill="#71A894"/>
<circle opacity="0.4" cx="40" cy="40" r="24" fill="#71A894"/>
<circle opacity="0.6" cx="40" cy="40" r="17" fill="#71A894"/>
<circle cx="40" cy="40" r="9" fill="#71A894"/>
<path d="M43.7969 21.8047V56H37.0469V29.5859L28.9375 32.1641V26.8438L43.0703 21.8047H43.7969ZM55.5156 52.7422C55.5156 51.7422 55.8594 50.9062 56.5469 50.2344C57.25 49.5625 58.1797 49.2266 59.3359 49.2266C60.4922 49.2266 61.4141 49.5625 62.1016 50.2344C62.8047 50.9062 63.1562 51.7422 63.1562 52.7422C63.1562 53.7422 62.8047 54.5781 62.1016 55.25C61.4141 55.9219 60.4922 56.2578 59.3359 56.2578C58.1797 56.2578 57.25 55.9219 56.5469 55.25C55.8594 54.5781 55.5156 53.7422 55.5156 52.7422Z" fill="#303031"/>
</svg>
